<svg width="166" height="52" viewBox="0 0 166 52" fill="none" xmlns="http://www.w3.org/2000/svg">
<g clip-path="url(#clip0_247:2101)">
<path d="M87.4633 13.0651C87.4633 14.9389 85.9597 16.4484 84.0933 16.4484C82.2269 16.4484 80.7234 14.9389 80.7234 13.0651C80.7234 11.1912 82.175 9.68168 84.0933 9.68168C86.0116 9.73373 87.4633 11.2432 87.4633 13.0651ZM73.5687 19.8839C73.5687 20.1962 73.5687 20.7167 73.5687 20.7167C73.5687 20.7167 71.9615 18.6346 68.5397 18.6346C62.8885 18.6346 58.4816 22.955 58.4816 28.9409C58.4816 34.8749 62.8367 39.2472 68.5397 39.2472C72.0133 39.2472 73.5687 37.1131 73.5687 37.1131V37.998C73.5687 38.4144 73.8798 38.7267 74.2945 38.7267H78.494V19.1552C78.494 19.1552 74.6574 19.1552 74.2945 19.1552C73.8798 19.1552 73.5687 19.5195 73.5687 19.8839ZM73.5687 32.4284C72.791 33.5736 71.2356 34.5626 69.3692 34.5626C66.0511 34.5626 63.5107 32.4805 63.5107 28.9409C63.5107 25.4014 66.0511 23.3193 69.3692 23.3193C71.1838 23.3193 72.8428 24.3604 73.5687 25.4535V32.4284ZM81.6047 19.1552H86.5819V38.7267H81.6047V19.1552ZM155.951 18.6346C152.529 18.6346 150.922 20.7167 150.922 20.7167V9.73373H145.945V38.7267C145.945 38.7267 149.782 38.7267 150.144 38.7267C150.559 38.7267 150.87 38.3624 150.87 37.998V37.1131C150.87 37.1131 152.478 39.2472 155.899 39.2472C161.55 39.2472 165.957 34.8749 165.957 28.9409C165.957 23.007 161.55 18.6346 155.951 18.6346ZM155.122 34.5105C153.203 34.5105 151.7 33.5215 150.922 32.3764V25.4014C151.7 24.3604 153.359 23.2673 155.122 23.2673C158.44 23.2673 160.98 25.3493 160.98 28.8889C160.98 32.4284 158.44 34.5105 155.122 34.5105ZM143.353 27.1191V38.7788H138.376V27.6917C138.376 24.4645 137.339 23.1632 134.539 23.1632C133.035 23.1632 131.48 23.9439 130.495 25.0891V38.7267H125.518V19.1552H129.458C129.873 19.1552 130.184 19.5195 130.184 19.8839V20.7167C131.636 19.2072 133.554 18.6346 135.472 18.6346C137.65 18.6346 139.464 19.2593 140.916 20.5085C142.679 21.966 143.353 23.8398 143.353 27.1191ZM113.438 18.6346C110.016 18.6346 108.409 20.7167 108.409 20.7167V9.73373H103.432V38.7267C103.432 38.7267 107.268 38.7267 107.631 38.7267C108.046 38.7267 108.357 38.3624 108.357 37.998V37.1131C108.357 37.1131 109.964 39.2472 113.386 39.2472C119.037 39.2472 123.444 34.8749 123.444 28.9409C123.496 23.007 119.089 18.6346 113.438 18.6346ZM112.608 34.5105C110.69 34.5105 109.187 33.5215 108.409 32.3764V25.4014C109.187 24.3604 110.846 23.2673 112.608 23.2673C115.926 23.2673 118.467 25.3493 118.467 28.8889C118.467 32.4284 115.926 34.5105 112.608 34.5105ZM99.1285 18.6346C100.632 18.6346 101.41 18.8949 101.41 18.8949V23.5275C101.41 23.5275 97.2621 22.1221 94.6698 25.0891V38.7788H89.6926V19.1552C89.6926 19.1552 93.5292 19.1552 93.8921 19.1552C94.3069 19.1552 94.6179 19.5195 94.6179 19.8839V20.7167C95.5512 19.6236 97.5731 18.6346 99.1285 18.6346ZM47.4385 36.957C47.1793 36.3323 46.9201 35.6557 46.6609 35.0831C46.2461 34.1461 45.8313 33.2613 45.4684 32.4284L45.4166 32.3764C41.8392 24.5686 38.0027 16.6567 33.9587 8.84885L33.8032 8.53654C33.3884 7.75576 32.9737 6.92292 32.5589 6.09009C32.0404 5.15315 31.522 4.16416 30.6925 3.22723C29.0334 1.14515 26.6485 0 24.1081 0C21.5158 0 19.1828 1.14515 17.4719 3.12312C16.6942 4.06006 16.1239 5.04905 15.6054 5.98599C15.1907 6.81882 14.7759 7.65165 14.3611 8.43243L14.2056 8.74474C10.2135 16.5526 6.32508 24.4645 2.74774 32.2723L2.69589 32.3764C2.33297 33.2092 1.91821 34.0941 1.50345 35.031C1.24422 35.6036 0.98499 36.2282 0.725763 36.9049C0.0517714 38.8308 -0.155611 40.6526 0.103617 42.5265C0.673917 46.4304 3.26619 49.7097 6.84353 51.1672C8.19151 51.7397 9.59134 52 11.043 52C11.4578 52 11.9762 51.9479 12.391 51.8959C14.1019 51.6877 15.8646 51.1151 17.5755 50.1261C19.7012 48.9289 21.7232 47.2112 24.0044 44.7127C26.2856 47.2112 28.3594 48.9289 30.4332 50.1261C32.1441 51.1151 33.9069 51.6877 35.6178 51.8959C36.0325 51.9479 36.551 52 36.9658 52C38.4174 52 39.8691 51.7397 41.1652 51.1672C44.7944 49.7097 47.3349 46.3784 47.9052 42.5265C48.3199 40.7047 48.1125 38.8829 47.4385 36.957ZM24.0562 39.6637C21.2566 36.1241 19.442 32.7928 18.8198 29.982C18.5606 28.7848 18.5088 27.7437 18.6643 26.8068C18.768 25.974 19.0791 25.2452 19.4938 24.6206C20.4789 23.2152 22.138 22.3303 24.0562 22.3303C25.9745 22.3303 27.6854 23.1632 28.6186 24.6206C29.0334 25.2452 29.3445 25.974 29.4482 26.8068C29.6037 27.7437 29.5519 28.8368 29.2926 29.982C28.6705 32.7407 26.8559 36.0721 24.0562 39.6637ZM44.7426 42.1101C44.3797 44.8168 42.5651 47.1592 40.0246 48.2002C38.7803 48.7207 37.4324 48.8769 36.0844 48.7207C34.7882 48.5646 33.4921 48.1481 32.1441 47.3674C30.2777 46.3263 28.4113 44.7127 26.2337 42.3183C29.6555 38.1021 31.7294 34.2502 32.507 30.8148C32.87 29.2012 32.9218 27.7437 32.7663 26.3904C32.5589 25.0891 32.0923 23.8919 31.3664 22.8509C29.7592 20.5085 27.0633 19.1552 24.0562 19.1552C21.0492 19.1552 18.3532 20.5606 16.746 22.8509C16.0202 23.8919 15.5536 25.0891 15.3462 26.3904C15.1388 27.7437 15.1907 29.2533 15.6054 30.8148C16.3831 34.2502 18.5088 38.1542 21.8787 42.3704C19.7531 44.7648 17.8348 46.3784 15.9683 47.4194C14.6204 48.2002 13.3242 48.6166 12.0281 48.7728C10.6283 48.9289 9.28027 48.7207 8.08782 48.2523C5.54739 47.2112 3.7328 44.8689 3.36988 42.1622C3.21435 40.8609 3.31804 39.5596 3.83649 38.1021C3.99203 37.5816 4.25126 37.0611 4.51048 36.4364C4.8734 35.6036 5.28817 34.7187 5.70293 33.8338L5.75478 33.7297C9.33211 25.974 13.1687 18.0621 17.1608 10.3584L17.3163 10.046C17.7311 9.26526 18.1458 8.43243 18.5606 7.65165C18.9754 6.81882 19.442 6.03804 20.0123 5.36136C21.101 4.11211 22.5527 3.43544 24.1599 3.43544C25.7671 3.43544 27.2188 4.11211 28.3076 5.36136C28.8779 6.03804 29.3445 6.81882 29.7592 7.65165C30.174 8.43243 30.5888 9.26526 31.0035 10.046L31.1591 10.3584C35.0993 18.1141 38.9359 26.026 42.5132 33.7818V33.8338C42.928 34.6667 43.2909 35.6036 43.7057 36.4364C43.9649 37.0611 44.2241 37.5816 44.3797 38.1021C44.7944 39.4555 44.95 40.7568 44.7426 42.1101Z" fill="#313E60"/>
</g>
<defs>
<clipPath id="clip0_247:2101">
<rect width="165.957" height="52" fill="white"/>
</clipPath>
</defs>
</svg>
