<svg width="52" height="53" viewBox="0 0 52 53" fill="none" xmlns="http://www.w3.org/2000/svg">
<g clip-path="url(#clip0_247:2486)">
<path d="M38.9998 8.92847H12.9998C10.6066 8.92847 8.6665 10.8686 8.6665 13.2618V39.2618C8.6665 41.655 10.6066 43.5951 12.9998 43.5951H38.9998C41.3931 43.5951 43.3332 41.655 43.3332 39.2618V13.2618C43.3332 10.8686 41.3931 8.92847 38.9998 8.92847Z" fill="white" stroke="#34B3FF" stroke-width="3.2" stroke-linecap="round" stroke-linejoin="round"/>
<path d="M32.5 19.7617H19.5V32.7617H32.5V19.7617Z" fill="#34B3FF" stroke="#34B3FF" stroke-width="3.2" stroke-linecap="round" stroke-linejoin="round"/>
<path d="M19.5 2.42847V8.92847" stroke="#34B3FF" stroke-width="3.2" stroke-linecap="round" stroke-linejoin="round"/>
<path d="M32.5 2.42847V8.92847" stroke="#34B3FF" stroke-width="3.2" stroke-linecap="round" stroke-linejoin="round"/>
<path d="M19.5 43.595V50.095" stroke="#34B3FF" stroke-width="3.2" stroke-linecap="round" stroke-linejoin="round"/>
<path d="M32.5 43.595V50.095" stroke="#34B3FF" stroke-width="3.2" stroke-linecap="round" stroke-linejoin="round"/>
<path d="M43.3335 19.7617H49.8335" stroke="#34B3FF" stroke-width="3.2" stroke-linecap="round" stroke-linejoin="round"/>
<path d="M43.3335 30.595H49.8335" stroke="#34B3FF" stroke-width="3.2" stroke-linecap="round" stroke-linejoin="round"/>
<path d="M2.1665 19.7617H8.6665" stroke="#34B3FF" stroke-width="3.2" stroke-linecap="round" stroke-linejoin="round"/>
<path d="M2.1665 30.595H8.6665" stroke="#34B3FF" stroke-width="3.2" stroke-linecap="round" stroke-linejoin="round"/>
</g>
<defs>
<clipPath id="clip0_247:2486">
<rect width="52" height="52" fill="white" transform="translate(0 0.261719)"/>
</clipPath>
</defs>
</svg>
