<svg width="52" height="52" viewBox="0 0 52 52" fill="none" xmlns="http://www.w3.org/2000/svg">
<ellipse cx="25.4789" cy="26.0798" rx="21.1122" ry="21.1122" fill="white" stroke="#34B3FF" stroke-width="3.2"/>
<path d="M26 11.8181V40.1817" stroke="#34B3FF" stroke-width="3.2" stroke-linecap="round" stroke-linejoin="round"/>
<path d="M32.4465 16.9751H22.777C21.5803 16.9751 20.4325 17.4505 19.5863 18.2967C18.7401 19.143 18.2646 20.2907 18.2646 21.4875C18.2646 22.6843 18.7401 23.832 19.5863 24.6782C20.4325 25.5245 21.5803 25.9999 22.777 25.9999H29.2233C30.4201 25.9999 31.5678 26.4753 32.4141 27.3215C33.2603 28.1678 33.7357 29.3155 33.7357 30.5123C33.7357 31.709 33.2603 32.8568 32.4141 33.703C31.5678 34.5493 30.4201 35.0247 29.2233 35.0247H18.2646" stroke="#34B3FF" stroke-width="3.2" stroke-linecap="round" stroke-linejoin="round"/>
</svg>
