<svg width="52" height="53" viewBox="0 0 52 53" fill="none" xmlns="http://www.w3.org/2000/svg">
<path d="M43.3337 26.2619C43.3337 39.2619 26.0003 47.9286 26.0003 47.9286C26.0003 47.9286 8.66699 39.2619 8.66699 26.2619V11.0952L26.0003 4.59521L43.3337 11.0952V26.2619Z" fill="white" stroke="#34B3FF" stroke-width="3.2" stroke-linecap="round" stroke-linejoin="round"/>
<path d="M12.9533 24.5955C12.9533 24.706 13.0429 24.7955 13.1533 24.7955H25.3912C25.5017 24.7955 25.5912 24.706 25.5912 24.5955V10.1399C25.5912 10.0745 25.5592 10.0132 25.5056 9.97578C25.4519 9.93839 25.3833 9.92961 25.3219 9.95229L13.084 14.4744C13.0055 14.5034 12.9533 14.5783 12.9533 14.662V24.5955ZM26.0151 26.4234C25.9619 26.4234 25.9109 26.4446 25.8734 26.4822C25.8359 26.5199 25.8149 26.5709 25.8151 26.6241L25.8672 42.1708C25.8674 42.2446 25.9083 42.3122 25.9735 42.3468C26.0386 42.3814 26.1176 42.3772 26.1788 42.3361C28.2113 40.9692 31.0703 38.827 33.6061 36.1431C36.1397 33.4616 38.3656 30.2236 39.1059 26.6641C39.1181 26.6052 39.1032 26.5439 39.0652 26.4972C39.0273 26.4505 38.9703 26.4234 38.9101 26.4234H26.0151Z" fill="#34B3FF" stroke="#34B3FF" stroke-width="0.4" stroke-linecap="round" stroke-linejoin="round"/>
</svg>
