<svg width="204" height="52" viewBox="0 0 204 52" fill="none" xmlns="http://www.w3.org/2000/svg">
<g clip-path="url(#clip0_247:2080)">
<path d="M65.3071 40.7401L67.8457 34.844C70.589 36.8913 74.2331 37.9558 77.8363 37.9558C80.4977 37.9558 82.1764 36.9322 82.1764 35.3763C82.1355 31.0362 66.2489 34.4346 66.126 23.5432C66.0851 18.0157 70.9985 13.7574 77.9591 13.7574C82.0945 13.7574 86.23 14.781 89.178 17.1149L86.8032 23.1338C84.1008 21.4141 80.7433 20.1858 77.5496 20.1858C75.3796 20.1858 73.9465 21.2094 73.9465 22.5196C73.9874 26.7779 89.9969 24.444 90.1607 34.844C90.1607 40.4944 85.3701 44.4661 78.4914 44.4661C73.4552 44.4661 68.8284 43.2787 65.3071 40.7401ZM162.715 32.7149C161.446 34.9259 159.071 36.4409 156.328 36.4409C152.274 36.4409 148.998 33.1653 148.998 29.1118C148.998 25.0582 152.274 21.7826 156.328 21.7826C159.071 21.7826 161.446 23.2976 162.715 25.5086L169.717 21.6188C167.096 16.9511 162.06 13.7574 156.328 13.7574C147.852 13.7574 140.973 20.6362 140.973 29.1118C140.973 37.5873 147.852 44.4661 156.328 44.4661C162.101 44.4661 167.096 41.3133 169.717 36.6047L162.715 32.7149ZM93.6819 1.02356H102.444V43.8929H93.6819V1.02356ZM173.156 1.02356V43.8929H181.918V31.0362L192.318 43.8929H203.537L190.312 28.6204L202.554 14.3716H191.827L181.918 26.2047V1.02356H173.156ZM128.485 32.7968C127.216 34.885 124.595 36.4409 121.647 36.4409C117.594 36.4409 114.318 33.1653 114.318 29.1118C114.318 25.0582 117.594 21.7826 121.647 21.7826C124.595 21.7826 127.216 23.4204 128.485 25.5495V32.7968ZM128.485 14.3716V17.8519C127.052 15.4362 123.49 13.7574 119.764 13.7574C112.066 13.7574 106.006 20.5543 106.006 29.0708C106.006 37.5873 112.066 44.4661 119.764 44.4661C123.49 44.4661 127.052 42.7873 128.485 40.3716V43.8519H137.247V14.3716H128.485Z" fill="#313E60"/>
<path d="M11.1371 32.7558C11.1371 35.7448 8.72134 38.1605 5.73236 38.1605C2.74338 38.1605 0.327637 35.7448 0.327637 32.7558C0.327637 29.7668 2.74338 27.3511 5.73236 27.3511H11.1371V32.7558ZM13.8394 32.7558C13.8394 29.7668 16.2552 27.3511 19.2442 27.3511C22.2332 27.3511 24.6489 29.7668 24.6489 32.7558V46.2676C24.6489 49.2566 22.2332 51.6723 19.2442 51.6723C16.2552 51.6723 13.8394 49.2566 13.8394 46.2676V32.7558Z" fill="#313E60"/>
<path d="M19.2441 11.0551C16.2551 11.0551 13.8394 8.63931 13.8394 5.65033C13.8394 2.66135 16.2551 0.245605 19.2441 0.245605C22.2331 0.245605 24.6488 2.66135 24.6488 5.65033V11.0551H19.2441ZM19.2441 13.7984C22.2331 13.7984 24.6488 16.2141 24.6488 19.2031C24.6488 22.1921 22.2331 24.6078 19.2441 24.6078H5.69134C2.70237 24.6078 0.286621 22.1921 0.286621 19.2031C0.286621 16.2141 2.70237 13.7984 5.69134 13.7984H19.2441Z" fill="#313E60"/>
<path d="M40.9039 19.2031C40.9039 16.2141 43.3197 13.7984 46.3086 13.7984C49.2976 13.7984 51.7134 16.2141 51.7134 19.2031C51.7134 22.1921 49.2976 24.6078 46.3086 24.6078H40.9039V19.2031ZM38.2015 19.2031C38.2015 22.1921 35.7858 24.6078 32.7968 24.6078C29.8078 24.6078 27.3921 22.1921 27.3921 19.2031V5.65033C27.3921 2.66135 29.8078 0.245605 32.7968 0.245605C35.7858 0.245605 38.2015 2.66135 38.2015 5.65033V19.2031Z" fill="#313E60"/>
<path d="M32.7968 40.8629C35.7858 40.8629 38.2015 43.2786 38.2015 46.2676C38.2015 49.2566 35.7858 51.6723 32.7968 51.6723C29.8078 51.6723 27.3921 49.2566 27.3921 46.2676V40.8629H32.7968ZM32.7968 38.1605C29.8078 38.1605 27.3921 35.7448 27.3921 32.7558C27.3921 29.7668 29.8078 27.3511 32.7968 27.3511H46.3496C49.3385 27.3511 51.7543 29.7668 51.7543 32.7558C51.7543 35.7448 49.3385 38.1605 46.3496 38.1605H32.7968Z" fill="#313E60"/>
</g>
<defs>
<clipPath id="clip0_247:2080">
<rect width="203.906" height="52" fill="white"/>
</clipPath>
</defs>
</svg>
