<svg width="2001" height="399" viewBox="0 0 2001 399" fill="none" xmlns="http://www.w3.org/2000/svg">
<g clip-path="url(#clip0_64_10)">
<path d="M929.8 110.9C949.5 110.9 967.7 114.6 984.3 122.1C1000.9 129.6 1015.2 139.7 1027.3 152.6C1039.4 165.5 1048.8 180.5 1055.5 197.9C1062.2 215.2 1065.6 234 1065.6 254.1C1065.6 272.7 1062.6 290.6 1056.7 307.8C1050.7 324.9 1041.7 340 1029.6 353.1C1017.5 366.1 1002.5 376.6 984.6 384.4C966.7 392.2 946 396.1 922.6 396.1C899.5 396.1 879.2 392.4 861.7 384.9C844.2 377.4 829.4 367.3 817.3 354.4C805.2 341.5 796.1 326.5 789.9 309.1C783.8 291.8 780.7 273.2 780.7 253.5V1.8999H847.8V146.1C857.5 135.3 869 126.7 882.5 120.4C895.7 114.1 911.5 110.9 929.8 110.9ZM998.5 253.4C998.5 242.2 997.1 231.8 994.3 222.1C991.5 212.4 987 203.9 980.9 196.7C974.8 189.4 966.8 183.8 957.1 179.6C947.4 175.5 935.7 173.5 921.9 173.5C898.8 173.5 880.6 179.9 867.4 192.8C854.2 205.7 847.6 225.9 847.6 253.4C847.6 281 854.2 301.2 867.4 314C880.6 326.9 898.8 333.3 921.9 333.3C935.7 333.3 947.4 331.3 957.1 327.2C966.8 323.1 974.7 317.4 980.9 310.2C987 302.9 991.5 294.5 994.3 284.8C997.1 275.1 998.5 264.6 998.5 253.4Z" fill="white"/>
<path d="M1099.7 252.9C1099.7 233.5 1102.9 215.2 1109.2 197.8C1115.5 180.5 1124.9 165.4 1137.1 152.5C1149.4 139.6 1164.5 129.5 1182.4 122C1200.3 114.6 1220.6 110.8 1243.3 110.8C1264.5 110.8 1283.7 114.2 1300.9 120.9C1318 127.6 1332.7 137.1 1344.8 149.4C1356.9 161.7 1366.4 176.7 1373.3 194.4C1380.2 212.1 1384 231.8 1384.8 253.4C1385.2 260.5 1385.4 269.1 1385.4 279.4C1385.4 289.7 1386 300.9 1387.1 313.2C1388.2 325.5 1390.3 338.4 1393.2 352C1396.2 365.6 1400.8 379.3 1407.2 393.1H1340C1333.7 379.3 1329 365 1326 350.1C1316.3 364.3 1304 375.4 1289.1 383.6C1274.2 391.8 1256.3 395.9 1235.4 395.9C1215.6 395.9 1197.4 392.2 1180.6 384.7C1163.8 377.2 1149.5 367.1 1137.6 354.2C1125.7 341.3 1116.4 326.3 1109.7 308.9C1103 291.7 1099.7 273 1099.7 252.9ZM1243.3 173.5C1229.5 173.5 1217.8 175.6 1208.1 179.6C1198.4 183.7 1190.5 189.4 1184.3 196.7C1178.1 204 1173.7 212.4 1170.9 222.1C1168.1 231.8 1166.7 242.2 1166.7 253.4C1166.7 264.6 1168.1 275 1170.9 284.7C1173.7 294.4 1178.2 302.9 1184.3 310.1C1190.4 317.3 1198.4 323.1 1208.1 327.1C1217.8 331.2 1229.5 333.2 1243.3 333.2C1266.4 333.2 1284.6 326.8 1297.8 313.9C1311 301 1317.6 280.8 1317.6 253.3C1316.5 228.7 1310.1 209.2 1298.6 194.9C1287.1 180.7 1268.7 173.5 1243.3 173.5Z" fill="white"/>
<path d="M1568.7 224.4C1582.5 227 1595.8 229.9 1608.7 233.1C1621.6 236.3 1633 240.7 1643.1 246.5C1653.2 252.3 1661.2 259.9 1667.1 269.4C1673.1 278.9 1676 291.3 1676 306.6C1676 322.3 1672.6 335.8 1665.9 347.1C1659.2 358.5 1650 367.8 1638.2 375C1626.5 382.3 1612.8 387.7 1597.1 391.2C1581.4 394.7 1564.5 396.5 1546.2 396.5C1538.7 396.5 1530.5 396.2 1521.3 395.7C1512.2 395.1 1502.8 394.3 1493.1 393.2C1483.4 392.1 1473.9 390.8 1464.6 389.3C1455.3 387.8 1446.7 386.1 1438.9 384.3V321.1C1445.2 323 1453 324.5 1462.1 325.9C1471.2 327.2 1480.8 328.3 1490.9 329.3C1501 330.2 1511.1 331 1521.4 331.5C1531.6 332.1 1541.1 332.3 1549.6 332.3C1572 332.3 1587.9 330.5 1597.4 327C1606.9 323.5 1611.7 317.8 1611.7 309.9C1611.7 307.3 1610.9 305 1609.2 302.9C1607.5 300.9 1604.2 298.8 1599.1 296.8C1594.1 294.8 1586.9 292.7 1577.6 290.7C1568.3 288.7 1556 286.1 1540.7 283.2C1533.6 281.7 1524.5 279.8 1513.3 277.6C1502.1 275.4 1491.2 271.3 1480.6 265.3C1470 259.3 1460.8 251.1 1452.9 240.7C1445.1 230.3 1441.2 216.3 1441.2 198.8C1441.2 183.9 1444.2 170.9 1450.1 160C1456.1 149 1464.4 139.9 1475 132.6C1485.6 125.3 1498.2 119.9 1512.7 116.4C1527.2 112.9 1543.1 111.1 1560.2 111.1C1566.9 111.1 1574.6 111.4 1583.4 111.9C1592.2 112.5 1601 113.3 1610 114.4C1618.9 115.5 1627.9 116.8 1636.8 118.3C1645.7 119.8 1653.9 121.5 1661.4 123.3V186.5C1656.2 185 1649.3 183.6 1640.7 182.3C1632.1 181 1623.1 179.8 1613.6 178.7C1604.1 177.6 1594.4 176.7 1584.5 176.2C1574.6 175.6 1565.8 175.4 1557.9 175.4C1538.1 175.4 1524.5 177.3 1516.8 181C1509.2 184.7 1505.3 189.9 1505.3 196.7C1505.3 200.4 1506.3 203.5 1508.4 205.9C1510.4 208.3 1513.9 210.6 1518.7 212.6C1523.5 214.7 1530.1 216.6 1538.3 218.5C1546.7 220.1 1556.7 222.1 1568.7 224.4Z" fill="white"/>
<path d="M1793.9 145.6C1803.2 134.8 1814.5 126.3 1827.7 120.2C1840.9 114.1 1856.3 111 1873.8 111C1892.8 111 1910.1 114.7 1925.8 122.2C1941.5 129.7 1954.9 139.8 1966 152.7C1977.2 165.6 1985.7 180.6 1991.7 198C1997.7 215.3 2000.6 233.9 2000.6 253.6V393.3H1933.5V253.4C1933.5 229.6 1928.3 210.3 1917.8 195.5C1907.4 180.8 1890.2 173.4 1866.4 173.4C1842.9 173.4 1825.1 180.5 1813 194.6C1800.9 208.8 1794.5 227.2 1793.7 249.9V393H1726.6V1.8999H1793.7V145.6H1793.9Z" fill="white"/>
<path d="M553.4 151.8C531.8 62.4 452.6 0 360.4 0C283.7 0 213.2 44.9 180.6 114.4C168.7 111.3 156.4 109.7 144.1 109.7C64.9 109.7 0.5 174.1 0.5 253.3C0.5 324.1 51.1 383.7 120.9 395.1H121C121.2 395.1 121.4 395 121.5 394.9C121.7 394.7 121.8 394.5 121.8 394.3C120.7 363.4 119.9 260 153.7 225.1C161 217.5 169.7 213.6 179.4 213.6C180.1 213.6 180.8 213.6 181.6 213.7C190.2 214.2 198.1 220.5 205.8 233C213.3 245.4 218.2 259.1 222.9 272.3C223.8 274.8 224.7 277.4 225.6 279.9C230.9 294.5 239.3 316.1 251.9 335.1C263.9 353.2 280.6 368.8 299.9 380.3C312.1 387.5 325.3 393.1 339.1 396.8C339.6 396.9 340 397 340.5 397C343.6 397 345.4 394.8 345.7 392.6C346.1 390.4 345.1 387.7 342.2 386.7C325.8 381.1 311.6 374.1 298.7 365.2C294.3 362.2 290.1 358.9 286.1 355.6C261.7 334.9 242.6 301.8 222.4 244.9C239.9 175 263.1 141.1 293.4 141.1C294.2 141.1 295 141.1 295.8 141.2C300.5 141.5 304.7 143.7 308.8 148C311.9 152.2 315 156.5 317.8 160.8L318.3 161.6C328.5 178.3 335.6 196.9 342.5 214.8C344.6 220.3 346.7 225.8 348.9 231.3L349.2 231.9C350.2 234.5 351.3 237.1 352.4 239.7C359.2 256.4 365.8 270.8 372.5 283.7C375.7 290 378.7 295.5 381.6 300.5C414.2 357 461.7 392.2 512.1 397.2C517.9 397.8 523.9 398.1 529.8 398.1C570.7 398.1 607.7 384.4 631.3 360.5C651 340.6 663.3 314.3 666.1 286.5C666.5 282.5 666.7 278.4 666.7 274.3C666.6 210.3 616.9 156.7 553.4 151.8ZM436.7 84.5C437.3 84.5 438 84.4 438.6 84.4C445.5 84.4 451.8 87.4 457.6 93.2C471 106.8 501.8 161.6 498.1 374.8L498 380.4C420.3 355.5 389.2 291.7 359.2 230L358.2 228L360.9 220.5C365.3 207.9 369.5 195 373.6 182.5C378.6 167.2 383.9 151.3 389.4 135.9C398.1 111.5 410.6 86.5 436.7 84.5Z" fill="white"/>
</g>
<defs>
<clipPath id="clip0_64_10">
<rect width="2001" height="399" fill="white"/>
</clipPath>
</defs>
</svg>
