<svg width="128" height="26" viewBox="0 0 128 26" fill="none" xmlns="http://www.w3.org/2000/svg">
<path d="M19.708 10.926C19.708 12.2607 19.474 13.5087 19.006 14.67C18.5553 15.814 17.9227 16.802 17.108 17.634C16.3107 18.4487 15.3487 19.0987 14.222 19.584C13.0953 20.052 11.882 20.286 10.582 20.286C9.23 20.286 7.96467 20.0433 6.786 19.558C5.60733 19.0727 4.58467 18.414 3.718 17.582C2.86867 16.7327 2.19267 15.736 1.69 14.592C1.18733 13.448 0.936 12.2173 0.936 10.9C0.936 9.58267 1.17867 8.352 1.664 7.208C2.16667 6.064 2.84267 5.076 3.692 4.244C4.55867 3.39467 5.58133 2.72733 6.76 2.242C7.93867 1.75667 9.19533 1.514 10.53 1.514C12.038 1.514 13.4593 1.81733 14.794 2.424C16.1287 3.03067 17.2293 3.86267 18.096 4.92L15.47 7.338C14.8287 6.57533 14.0833 5.99467 13.234 5.596C12.402 5.18 11.5007 4.972 10.53 4.972C9.71533 4.972 8.95267 5.128 8.242 5.44C7.54867 5.73467 6.942 6.15067 6.422 6.688C5.91933 7.208 5.52067 7.832 5.226 8.56C4.94867 9.27067 4.81 10.0507 4.81 10.9C4.81 11.7493 4.95733 12.538 5.252 13.266C5.54667 13.994 5.954 14.6267 6.474 15.164C6.994 15.684 7.60933 16.1 8.32 16.412C9.048 16.7067 9.81933 16.854 10.634 16.854C11.9167 16.854 13.0173 16.4987 13.936 15.788C14.872 15.0773 15.4527 14.1673 15.678 13.058H10.296V9.782H19.708V10.926ZM24.0746 4.842C23.5199 4.842 23.0432 4.64267 22.6446 4.244C22.2459 3.84533 22.0466 3.36867 22.0466 2.814C22.0466 2.25933 22.2459 1.78267 22.6446 1.384C23.0432 0.985333 23.5199 0.785999 24.0746 0.785999C24.6292 0.785999 25.1059 0.985333 25.5046 1.384C25.9032 1.78267 26.1026 2.25933 26.1026 2.814C26.1026 3.36867 25.9032 3.84533 25.5046 4.244C25.1059 4.64267 24.6292 4.842 24.0746 4.842ZM25.8686 6.454V20H22.3066V6.454H25.8686ZM33.3342 20L27.5102 6.454H31.3842L35.1022 15.476L38.7942 6.454H42.5902L36.7662 20H33.3342ZM54.2663 18.7L47.9743 6.61V20H44.4903V1.8H49.3263L54.3183 11.576L59.3103 1.8H64.1463V20H60.5843V6.636L54.2663 18.7ZM66.82 13.24C66.82 12.252 67.002 11.3333 67.366 10.484C67.7473 9.61733 68.2587 8.872 68.9 8.248C69.5587 7.60667 70.33 7.104 71.214 6.74C72.098 6.376 73.0427 6.194 74.048 6.194C75.0533 6.194 75.998 6.376 76.882 6.74C77.766 7.104 78.5287 7.60667 79.17 8.248C79.8287 8.872 80.34 9.61733 80.704 10.484C81.0853 11.3333 81.276 12.252 81.276 13.24C81.276 14.228 81.0853 15.1553 80.704 16.022C80.34 16.8713 79.8287 17.608 79.17 18.232C78.5287 18.856 77.766 19.35 76.882 19.714C75.998 20.078 75.0533 20.26 74.048 20.26C73.0427 20.26 72.098 20.078 71.214 19.714C70.33 19.35 69.5587 18.856 68.9 18.232C68.2587 17.608 67.7473 16.8713 67.366 16.022C67.002 15.1553 66.82 14.228 66.82 13.24ZM74.048 17.166C75.088 17.166 75.972 16.7847 76.7 16.022C77.428 15.2593 77.792 14.332 77.792 13.24C77.792 12.1307 77.428 11.1947 76.7 10.432C75.972 9.66933 75.088 9.288 74.048 9.288C73.008 9.288 72.124 9.66933 71.396 10.432C70.668 11.1947 70.304 12.1307 70.304 13.24C70.304 14.332 70.668 15.2593 71.396 16.022C72.124 16.7847 73.008 17.166 74.048 17.166ZM83.7255 20V6.454H87.2875V7.52C87.8075 7.08667 88.3795 6.75733 89.0035 6.532C89.6448 6.30667 90.3382 6.194 91.0835 6.194C92.6435 6.194 93.9262 6.69667 94.9315 7.702C95.9368 8.70733 96.4395 9.99867 96.4395 11.576V20H92.8775V12.096C92.8775 11.2467 92.6175 10.562 92.0975 10.042C91.5948 9.522 90.9188 9.262 90.0695 9.262C89.4802 9.262 88.9428 9.38333 88.4575 9.626C87.9895 9.85133 87.5995 10.1807 87.2875 10.614V20H83.7255ZM111.54 18.31C110.708 18.986 109.85 19.48 108.966 19.792C108.099 20.104 107.128 20.26 106.054 20.26C105.031 20.26 104.069 20.078 103.168 19.714C102.284 19.35 101.512 18.856 100.854 18.232C100.212 17.608 99.7009 16.8713 99.3196 16.022C98.9556 15.1553 98.7736 14.228 98.7736 13.24C98.7736 12.2693 98.9469 11.3593 99.2936 10.51C99.6576 9.64333 100.152 8.898 100.776 8.274C101.4 7.63267 102.136 7.13 102.986 6.766C103.852 6.402 104.771 6.22 105.742 6.22C106.695 6.22 107.579 6.41067 108.394 6.792C109.226 7.156 109.936 7.65867 110.526 8.3C111.132 8.94133 111.6 9.71267 111.93 10.614C112.276 11.498 112.45 12.46 112.45 13.5V14.436H102.362C102.604 15.2853 103.072 15.97 103.766 16.49C104.459 17.01 105.274 17.27 106.21 17.27C106.799 17.27 107.354 17.1747 107.874 16.984C108.394 16.7933 108.836 16.5247 109.2 16.178L111.54 18.31ZM105.664 9.158C104.849 9.158 104.147 9.40933 103.558 9.912C102.968 10.3973 102.561 11.056 102.336 11.888H108.966C108.74 11.0907 108.324 10.4407 107.718 9.938C107.128 9.418 106.444 9.158 105.664 9.158ZM118.05 20.624L118.258 20.13L112.98 6.454H116.906L120.26 15.684L124.108 6.454H127.956L121.716 21.066C121.023 22.6953 120.217 23.8567 119.298 24.55C118.379 25.2433 117.183 25.59 115.71 25.59C115.398 25.59 115.095 25.5727 114.8 25.538C114.523 25.5207 114.297 25.486 114.124 25.434V22.366C114.297 22.4007 114.479 22.4267 114.67 22.444C114.861 22.4613 115.095 22.47 115.372 22.47C116.013 22.47 116.551 22.314 116.984 22.002C117.435 21.69 117.79 21.2307 118.05 20.624Z" fill="#FAFAFD"/>
</svg>
