<svg width="159" height="52" viewBox="0 0 159 52" fill="none" xmlns="http://www.w3.org/2000/svg">
<g clip-path="url(#clip0_247:2116)">
<path d="M153.54 31.7795L157.936 34.7103C156.51 36.812 153.097 40.4177 147.196 40.4177C139.869 40.4177 134.413 34.7489 134.413 27.5375C134.413 19.8633 139.927 14.6572 146.579 14.6572C153.27 14.6572 156.548 19.979 157.609 22.852L158.187 24.3174L140.949 31.4517C142.26 34.0354 144.304 35.3466 147.196 35.3466C150.089 35.3466 152.094 33.9198 153.54 31.7795ZM140.024 27.1326L151.535 22.3507C150.899 20.7503 149.009 19.6127 146.753 19.6127C143.88 19.6127 139.889 22.1579 140.024 27.1326Z" fill="#CED2DE"/>
<path d="M126.102 1.52637H131.655V39.2416H126.102V1.52637Z" fill="#CED2DE"/>
<path d="M117.348 15.6599H122.709V38.5667C122.709 48.0726 117.098 51.9868 110.465 51.9868C104.217 51.9868 100.457 47.7834 99.0498 44.3705L103.967 42.3266C104.854 44.4283 106.994 46.9157 110.465 46.9157C114.726 46.9157 117.348 44.2741 117.348 39.3379V37.4869H117.155C115.883 39.0294 113.453 40.4177 110.368 40.4177C103.928 40.4177 98.0278 34.8067 98.0278 27.576C98.0278 20.3068 103.928 14.6379 110.368 14.6379C113.434 14.6379 115.883 16.0069 117.155 17.5109H117.348V15.6599ZM117.734 27.576C117.734 23.0255 114.707 19.7091 110.85 19.7091C106.955 19.7091 103.677 23.0255 103.677 27.576C103.677 32.0687 106.955 35.3273 110.85 35.3273C114.707 35.3466 117.734 32.0687 117.734 27.576Z" fill="#CED2DE"/>
<path d="M67.5432 27.4796C67.5432 34.9031 61.7587 40.3599 54.663 40.3599C47.5673 40.3599 41.7827 34.8838 41.7827 27.4796C41.7827 20.0176 47.5673 14.5801 54.663 14.5801C61.7587 14.5801 67.5432 20.0176 67.5432 27.4796ZM61.9129 27.4796C61.9129 22.852 58.5579 19.6705 54.663 19.6705C50.768 19.6705 47.413 22.852 47.413 27.4796C47.413 32.0687 50.768 35.2887 54.663 35.2887C58.5579 35.2887 61.9129 32.0687 61.9129 27.4796Z" fill="#CED2DE"/>
<path d="M95.6755 27.5375C95.6755 34.961 89.891 40.4177 82.7953 40.4177C75.6996 40.4177 69.915 34.961 69.915 27.5375C69.915 20.0754 75.6996 14.6572 82.7953 14.6572C89.891 14.6572 95.6755 20.0561 95.6755 27.5375ZM90.026 27.5375C90.026 22.9098 86.6709 19.7283 82.776 19.7283C78.8811 19.7283 75.526 22.9098 75.526 27.5375C75.526 32.1266 78.8811 35.3466 82.776 35.3466C86.6902 35.3466 90.026 32.1073 90.026 27.5375Z" fill="#CED2DE"/>
<path d="M20.6114 34.7682C12.5323 34.7682 6.20783 28.2509 6.20783 20.1719C6.20783 12.0928 12.5323 5.57552 20.6114 5.57552C24.969 5.57552 28.1505 7.2916 30.5029 9.48973L34.3786 5.61408C31.1007 2.47115 26.7237 0.0802002 20.6114 0.0802002C9.54359 0.0802002 0.230469 9.10409 0.230469 20.1719C0.230469 31.2396 9.54359 40.2635 20.6114 40.2635C26.5887 40.2635 31.1007 38.2968 34.6292 34.6332C38.2542 31.0082 39.3726 25.9178 39.3726 21.7915C39.3726 20.4996 39.2183 19.1692 39.0448 18.1858H20.6114V23.5462H33.7423C33.3566 26.9012 32.2961 29.1957 30.7343 30.7576C28.8447 32.6665 25.856 34.7682 20.6114 34.7682Z" fill="#CED2DE"/>
</g>
<defs>
<clipPath id="clip0_247:2116">
<rect width="158.476" height="52" fill="white"/>
</clipPath>
</defs>
</svg>
