<svg width="244" height="52" viewBox="0 0 244 52" fill="none" xmlns="http://www.w3.org/2000/svg">
<g clip-path="url(#clip0_247:2110)">
<path d="M86.039 29.9504L84.5862 34.062H84.4652C84.223 33.1349 83.7791 31.724 83.0527 30.031L75.264 10.4806H67.6367V41.6403H72.6812V22.4124C72.6812 21.2031 72.6812 19.8325 72.6409 18.1395C72.6005 17.293 72.5198 16.648 72.4794 16.1643H72.6005C72.8426 17.3736 73.1251 18.2604 73.3269 18.8248L82.6895 41.5597H86.2408L95.5227 18.6232C95.7245 18.0992 95.9263 17.0511 96.128 16.1643H96.2491C96.128 18.462 96.0473 20.5178 96.007 21.7674V41.5194H101.374V10.4H94.0295L86.039 29.9504ZM106.459 19.1876H111.705V41.5194H106.459V19.1876ZM109.123 9.75501C108.235 9.75501 107.508 10.0775 106.903 10.6418C106.298 11.2062 105.975 11.9318 105.975 12.8186C105.975 13.6651 106.298 14.3907 106.903 14.955C107.508 15.5193 108.235 15.8015 109.123 15.8015C110.01 15.8015 110.777 15.479 111.342 14.955C111.948 14.3907 112.27 13.6651 112.27 12.8186C112.27 11.9721 111.948 11.2465 111.342 10.6418C110.818 10.0775 110.051 9.75501 109.123 9.75501ZM130.31 18.986C129.341 18.7845 128.332 18.6635 127.364 18.6635C124.983 18.6635 122.803 19.1876 120.987 20.2356C119.171 21.2837 117.718 22.7349 116.79 24.5488C115.822 26.4031 115.337 28.5395 115.337 30.9984C115.337 33.1349 115.822 35.0294 116.75 36.7628C117.678 38.4558 118.97 39.8263 120.705 40.7535C122.359 41.6806 124.296 42.1643 126.476 42.1643C128.978 42.1643 131.117 41.6403 132.812 40.6728L132.852 40.6325V35.7953L132.65 35.9566C131.883 36.5209 130.996 37.0046 130.108 37.2868C129.18 37.6093 128.332 37.7705 127.606 37.7705C125.507 37.7705 123.853 37.1659 122.682 35.8356C121.472 34.5457 120.866 32.7721 120.866 30.555C120.866 28.2573 121.472 26.4434 122.723 25.1131C123.974 23.7829 125.628 23.0976 127.646 23.0976C129.341 23.0976 131.076 23.662 132.65 24.7907L132.852 24.9519V19.8325L132.812 19.7922C132.126 19.51 131.359 19.1876 130.31 18.986ZM147.622 18.8248C146.331 18.8248 145.12 19.2279 144.071 20.0744C143.183 20.8 142.578 21.848 142.053 23.0976H142.013V19.1876H136.766V41.5194H142.013V30.1116C142.013 28.1767 142.416 26.5643 143.304 25.3953C144.192 24.186 145.322 23.5814 146.694 23.5814C147.178 23.5814 147.663 23.7023 148.268 23.7829C148.833 23.9442 149.236 24.1054 149.519 24.3069L149.721 24.4682V19.2279L149.6 19.1876C149.236 18.9457 148.51 18.8248 147.622 18.8248ZM161.908 18.7038C158.236 18.7038 155.29 19.7922 153.232 21.9287C151.133 24.0651 150.124 27.0077 150.124 30.7162C150.124 34.1829 151.174 37.0046 153.191 39.0604C155.209 41.0759 157.953 42.124 161.384 42.124C164.975 42.124 167.841 41.0356 169.899 38.8589C171.997 36.6821 173.006 33.7798 173.006 30.1922C173.006 26.6449 172.038 23.8232 170.06 21.7674C168.163 19.7116 165.379 18.7038 161.908 18.7038ZM166.105 35.8759C165.137 37.1256 163.603 37.7302 161.706 37.7302C159.81 37.7302 158.276 37.1256 157.187 35.7953C156.097 34.5457 155.572 32.7318 155.572 30.4341C155.572 28.0558 156.137 26.2418 157.187 24.9519C158.276 23.662 159.769 23.017 161.666 23.017C163.523 23.017 164.975 23.6217 166.025 24.8713C167.074 26.1209 167.639 27.9349 167.639 30.3131C167.558 32.7318 167.114 34.6263 166.105 35.8759ZM184.709 28.4589C183.055 27.7736 182.006 27.2496 181.521 26.8062C181.118 26.4031 180.916 25.8387 180.916 25.1131C180.916 24.5085 181.158 23.9038 181.763 23.5007C182.369 23.0976 183.055 22.8961 184.064 22.8961C184.952 22.8961 185.88 23.0573 186.768 23.2992C187.655 23.5411 188.462 23.9038 189.108 24.3876L189.31 24.5488V19.631L189.189 19.5907C188.584 19.3488 187.776 19.1069 186.808 18.9054C185.839 18.7442 184.952 18.6635 184.225 18.6635C181.723 18.6635 179.665 19.2682 178.051 20.5984C176.436 21.848 175.67 23.5411 175.67 25.5162C175.67 26.5643 175.831 27.4914 176.194 28.2573C176.557 29.0232 177.082 29.7488 177.809 30.3535C178.535 30.9178 179.584 31.5628 181.037 32.1674C182.248 32.6914 183.176 33.0945 183.741 33.417C184.306 33.7395 184.669 34.1023 184.952 34.3845C185.153 34.707 185.274 35.1101 185.274 35.6341C185.274 37.1256 184.144 37.8511 181.844 37.8511C180.956 37.8511 180.028 37.6899 178.938 37.3271C177.849 36.9643 176.84 36.4403 175.993 35.8356L175.791 35.6744V40.7938L175.912 40.8341C176.679 41.1969 177.607 41.4387 178.737 41.7209C179.867 41.9225 180.876 42.0837 181.763 42.0837C184.467 42.0837 186.687 41.479 188.261 40.1488C189.875 38.8589 190.722 37.2062 190.722 35.0697C190.722 33.5783 190.319 32.248 189.431 31.2403C188.261 30.2728 186.808 29.2651 184.709 28.4589ZM204.565 18.7038C200.892 18.7038 197.946 19.7922 195.888 21.9287C193.83 24.0651 192.781 27.0077 192.781 30.7162C192.781 34.1829 193.83 37.0046 195.848 39.0604C197.865 41.0759 200.61 42.124 204.04 42.124C207.632 42.124 210.497 41.0356 212.555 38.8589C214.654 36.6821 215.662 33.7798 215.662 30.1922C215.662 26.6449 214.694 23.8232 212.716 21.7674C210.82 19.7116 208.035 18.7038 204.565 18.7038ZM208.721 35.8759C207.753 37.1256 206.219 37.7302 204.322 37.7302C202.385 37.7302 200.892 37.1256 199.803 35.7953C198.713 34.5457 198.188 32.7318 198.188 30.4341C198.188 28.0558 198.753 26.2418 199.803 24.9519C200.892 23.662 202.385 23.017 204.282 23.017C206.098 23.017 207.591 23.6217 208.64 24.8713C209.69 26.1209 210.255 27.9349 210.255 30.3131C210.255 32.7318 209.73 34.6263 208.721 35.8759ZM243.71 23.5007V19.1876H238.423V12.5767L238.262 12.617L233.258 14.1085L233.137 14.1488V19.1876H225.227V16.3659C225.227 15.0759 225.55 14.0682 226.115 13.4232C226.68 12.7783 227.527 12.4558 228.576 12.4558C229.303 12.4558 230.07 12.617 230.917 12.9798L231.119 13.1007V8.54571L230.998 8.5054C230.271 8.26354 229.303 8.10229 228.052 8.10229C226.478 8.10229 225.106 8.46509 223.855 9.06974C222.604 9.75501 221.675 10.6821 220.989 11.9318C220.303 13.1411 219.94 14.5116 219.94 16.0837V19.1876H216.268V23.4604H219.94V41.5194H225.227V23.5007H233.137V34.9891C233.137 39.7054 235.356 42.0837 239.795 42.0837C240.522 42.0837 241.288 41.9628 242.015 41.8418C242.782 41.6806 243.347 41.479 243.669 41.3178L243.71 41.2775V36.9643L243.508 37.1256C243.185 37.3271 242.903 37.4883 242.418 37.6093C242.015 37.7302 241.652 37.7705 241.369 37.7705C240.32 37.7705 239.594 37.5287 239.069 36.924C238.585 36.3597 238.342 35.4325 238.342 34.062V23.5007H243.71Z" fill="#CED2DE"/>
<path d="M0 0H24.7382V24.7101H0V0Z" fill="#CED2DE"/>
<path d="M27.3208 0H52.059V24.7101H27.3208V0Z" fill="#CED2DE"/>
<path d="M0 27.2899H24.7382V52H0V27.2899Z" fill="#CED2DE"/>
<path d="M27.3208 27.2899H52.059V52H27.3208V27.2899Z" fill="#CED2DE"/>
</g>
<defs>
<clipPath id="clip0_247:2110">
<rect width="243.75" height="52" fill="white"/>
</clipPath>
</defs>
</svg>
