<svg width="52" height="52" viewBox="0 0 52 52" fill="none" xmlns="http://www.w3.org/2000/svg">
<g clip-path="url(#clip0_21_73)">
<path d="M15.1667 0H8.66667C6.36812 0 4.16372 0.913093 2.53841 2.53841C0.913093 4.16372 0 6.36812 0 8.66667L0 15.1667C0 17.4652 0.913093 19.6696 2.53841 21.2949C4.16372 22.9202 6.36812 23.8333 8.66667 23.8333H15.1667C17.4652 23.8333 19.6696 22.9202 21.2949 21.2949C22.9202 19.6696 23.8333 17.4652 23.8333 15.1667V8.66667C23.8333 6.36812 22.9202 4.16372 21.2949 2.53841C19.6696 0.913093 17.4652 0 15.1667 0V0ZM19.5 15.1667C19.5 16.3159 19.0435 17.4181 18.2308 18.2308C17.4181 19.0435 16.3159 19.5 15.1667 19.5H8.66667C7.5174 19.5 6.41519 19.0435 5.60254 18.2308C4.78988 17.4181 4.33333 16.3159 4.33333 15.1667V8.66667C4.33333 7.5174 4.78988 6.41519 5.60254 5.60254C6.41519 4.78988 7.5174 4.33333 8.66667 4.33333H15.1667C16.3159 4.33333 17.4181 4.78988 18.2308 5.60254C19.0435 6.41519 19.5 7.5174 19.5 8.66667V15.1667Z" fill="#34B3FF"/>
<path d="M15.1667 28.1666H8.66667C6.36812 28.1666 4.16372 29.0797 2.53841 30.705C0.913093 32.3303 0 34.5347 0 36.8333L0 43.3333C0 45.6318 0.913093 47.8362 2.53841 49.4616C4.16372 51.0869 6.36812 52 8.66667 52H15.1667C17.4652 52 19.6696 51.0869 21.2949 49.4616C22.9202 47.8362 23.8333 45.6318 23.8333 43.3333V36.8333C23.8333 34.5347 22.9202 32.3303 21.2949 30.705C19.6696 29.0797 17.4652 28.1666 15.1667 28.1666V28.1666ZM19.5 43.3333C19.5 44.4826 19.0435 45.5848 18.2308 46.3974C17.4181 47.2101 16.3159 47.6666 15.1667 47.6666H8.66667C7.5174 47.6666 6.41519 47.2101 5.60254 46.3974C4.78988 45.5848 4.33333 44.4826 4.33333 43.3333V36.8333C4.33333 35.684 4.78988 34.5818 5.60254 33.7692C6.41519 32.9565 7.5174 32.5 8.66667 32.5H15.1667C16.3159 32.5 17.4181 32.9565 18.2308 33.7692C19.0435 34.5818 19.5 35.684 19.5 36.8333V43.3333Z" fill="#34B3FF"/>
<path d="M48.3016 41.2729L43.3334 46.2346V5.70489L48.3016 10.6666C48.5029 10.8677 48.7419 11.0273 49.0048 11.1361C49.2678 11.2449 49.5496 11.3008 49.8342 11.3007C50.1188 11.3006 50.4006 11.2445 50.6635 11.1355C50.9264 11.0265 51.1652 10.8668 51.3664 10.6655C51.5675 10.4642 51.7271 10.2252 51.8359 9.96224C51.9447 9.69928 52.0007 9.41746 52.0006 9.13287C52.0005 8.84828 51.9443 8.5665 51.8353 8.30361C51.7263 8.04073 51.5666 7.80188 51.3653 7.60072L45.7601 2.00422C44.5414 0.786981 42.8893 0.103271 41.1668 0.103271C39.4443 0.103271 37.7922 0.786981 36.5734 2.00422L30.9683 7.60072C30.767 7.80188 30.6073 8.04073 30.4983 8.30361C30.3893 8.5665 30.3331 8.84828 30.333 9.13287C30.3329 9.41746 30.3889 9.69928 30.4977 9.96224C30.6065 10.2252 30.766 10.4642 30.9672 10.6655C31.1684 10.8668 31.4072 11.0265 31.6701 11.1355C31.933 11.2445 32.2148 11.3006 32.4993 11.3007C32.7839 11.3008 33.0658 11.2449 33.3287 11.1361C33.5917 11.0273 33.8306 10.8677 34.0319 10.6666L39.0001 5.70489V46.2346L34.0319 41.2729C33.8306 41.0717 33.5917 40.9122 33.3287 40.8034C33.0658 40.6946 32.7839 40.6386 32.4993 40.6387C32.2148 40.6388 31.933 40.695 31.6701 40.804C31.4072 40.913 31.1684 41.0727 30.9672 41.274C30.766 41.4753 30.6065 41.7142 30.4977 41.9772C30.3889 42.2402 30.3329 42.522 30.333 42.8066C30.3331 43.0912 30.3893 43.3729 30.4983 43.6358C30.6073 43.8987 30.767 44.1376 30.9683 44.3387L36.5734 49.9352C37.7922 51.1525 39.4443 51.8362 41.1668 51.8362C42.8893 51.8362 44.5414 51.1525 45.7601 49.9352L51.3653 44.3387C51.5666 44.1376 51.7263 43.8987 51.8353 43.6358C51.9443 43.3729 52.0005 43.0912 52.0006 42.8066C52.0007 42.522 51.9447 42.2402 51.8359 41.9772C51.7271 41.7142 51.5675 41.4753 51.3664 41.274C51.1652 41.0727 50.9264 40.913 50.6635 40.804C50.4006 40.695 50.1188 40.6388 49.8342 40.6387C49.5496 40.6386 49.2678 40.6946 49.0048 40.8034C48.7419 40.9122 48.5029 41.0717 48.3016 41.2729V41.2729Z" fill="#34B3FF"/>
</g>
<defs>
<clipPath id="clip0_21_73">
<rect width="52" height="52" fill="white"/>
</clipPath>
</defs>
</svg>
