<svg width="52" height="52" viewBox="0 0 52 52" fill="none" xmlns="http://www.w3.org/2000/svg">
<g clip-path="url(#clip0_20_49)">
<path d="M1.11375e-07 47.6667H52V52H1.11375e-07V47.6667ZM52 17.1362V21.6667H45.5V39H49.8333V43.3334H2.16667V39H6.5V21.6667H1.11375e-07V17.1362C-0.000216027 15.9684 0.314156 14.8222 0.910071 13.818C1.50599 12.8137 2.36144 11.9885 3.3865 11.4292L22.8865 0.793024C23.8411 0.270553 24.9118 -0.0032959 26 -0.0032959C27.0882 -0.0032959 28.1589 0.270553 29.1135 0.793024L48.6135 11.4292C49.6386 11.9885 50.494 12.8137 51.0899 13.818C51.6858 14.8222 52.0002 15.9684 52 17.1362ZM10.8333 39H17.3333V21.6667H10.8333V39ZM21.6667 21.6667V39H30.3333V21.6667H21.6667ZM41.1667 21.6667H34.6667V39H41.1667V21.6667ZM47.6667 17.1362C47.6667 16.7469 47.562 16.3649 47.3633 16.0301C47.1647 15.6954 46.8795 15.4203 46.5378 15.2339L27.0378 4.59769C26.7195 4.42398 26.3626 4.33296 26 4.33296C25.6374 4.33296 25.2805 4.42398 24.9622 4.59769L5.46217 15.2339C5.12048 15.4203 4.83533 15.6954 4.63669 16.0301C4.43805 16.3649 4.33326 16.7469 4.33333 17.1362V17.3334H47.6667V17.1362Z" fill="#34B3FF"/>
</g>
<defs>
<clipPath id="clip0_20_49">
<rect width="52" height="52" fill="white"/>
</clipPath>
</defs>
</svg>
