<svg width="52" height="52" viewBox="0 0 52 52" fill="none" xmlns="http://www.w3.org/2000/svg">
<g clip-path="url(#clip0_20_51)">
<path d="M40.0833 0H11.9167C8.7574 0.00401323 5.72868 1.2608 3.49474 3.49474C1.2608 5.72868 0.00401323 8.7574 0 11.9167L0 40.0833C0.00401323 43.2426 1.2608 46.2713 3.49474 48.5053C5.72868 50.7392 8.7574 51.996 11.9167 52H40.0833C43.2426 51.996 46.2713 50.7392 48.5053 48.5053C50.7392 46.2713 51.996 43.2426 52 40.0833V11.9167C51.996 8.7574 50.7392 5.72868 48.5053 3.49474C46.2713 1.2608 43.2426 0.00401323 40.0833 0V0ZM45.3895 10.8333H34.6667V6.5H40.0833C41.3317 6.50024 42.5416 6.93166 43.5085 7.72127C44.4754 8.51088 45.1398 9.61022 45.3895 10.8333ZM23.8333 6.5H28.1667V15.1667C28.1667 15.7413 27.9384 16.2924 27.5321 16.6987C27.1257 17.1051 26.5746 17.3333 26 17.3333C25.4254 17.3333 24.8743 17.1051 24.4679 16.6987C24.0616 16.2924 23.8333 15.7413 23.8333 15.1667V6.5ZM11.9167 6.5H17.3333V10.8333H6.6105C6.86017 9.61022 7.52464 8.51088 8.49152 7.72127C9.4584 6.93166 10.6683 6.50024 11.9167 6.5V6.5ZM40.0833 45.5H11.9167C10.4801 45.5 9.10233 44.9293 8.08651 43.9135C7.07068 42.8977 6.5 41.5199 6.5 40.0833V17.3333H17.641C18.1139 19.1914 19.1925 20.839 20.7062 22.0157C22.22 23.1925 24.0827 23.8313 26 23.8313C27.9173 23.8313 29.78 23.1925 31.2938 22.0157C32.8075 20.839 33.8861 19.1914 34.359 17.3333H45.5V40.0833C45.5 41.5199 44.9293 42.8977 43.9135 43.9135C42.8977 44.9293 41.5199 45.5 40.0833 45.5ZM41.1667 37.9167C41.1667 38.7786 40.8243 39.6053 40.2148 40.2148C39.6053 40.8243 38.7786 41.1667 37.9167 41.1667H31.4167C30.5547 41.1667 29.7281 40.8243 29.1186 40.2148C28.5091 39.6053 28.1667 38.7786 28.1667 37.9167C28.1667 37.0547 28.5091 36.2281 29.1186 35.6186C29.7281 35.0091 30.5547 34.6667 31.4167 34.6667H37.9167C38.7786 34.6667 39.6053 35.0091 40.2148 35.6186C40.8243 36.2281 41.1667 37.0547 41.1667 37.9167Z" fill="#34B3FF"/>
</g>
<defs>
<clipPath id="clip0_20_51">
<rect width="52" height="52" fill="white"/>
</clipPath>
</defs>
</svg>
