<svg width="52" height="52" viewBox="0 0 52 52" fill="none" xmlns="http://www.w3.org/2000/svg">
<g clip-path="url(#clip0_20_53)">
<path d="M42.25 34.6667C42.25 35.8648 41.2815 36.8333 40.0833 36.8333H35.75C34.5518 36.8333 33.5833 35.8648 33.5833 34.6667C33.5833 33.4685 34.5518 32.5 35.75 32.5H40.0833C41.2815 32.5 42.25 33.4685 42.25 34.6667ZM52 32.5V43.3333C52 48.113 48.113 52 43.3333 52H8.66667C3.887 52 0 48.113 0 43.3333V32.5C0 27.7203 3.887 23.8333 8.66667 23.8333H10.8333V8.66667C10.8333 3.887 14.7203 0 19.5 0H32.5C37.2797 0 41.1667 3.887 41.1667 8.66667V23.8333H43.3333C48.113 23.8333 52 27.7203 52 32.5ZM15.1667 23.8333H36.8333V8.66667C36.8333 6.27683 34.8898 4.33333 32.5 4.33333H19.5C17.1102 4.33333 15.1667 6.27683 15.1667 8.66667V23.8333ZM8.66667 47.6667H23.8333V28.1667H8.66667C6.27683 28.1667 4.33333 30.1102 4.33333 32.5V43.3333C4.33333 45.7232 6.27683 47.6667 8.66667 47.6667ZM47.6667 32.5C47.6667 30.1102 45.7232 28.1667 43.3333 28.1667H28.1667V47.6667H43.3333C45.7232 47.6667 47.6667 45.7232 47.6667 43.3333V32.5ZM16.25 32.5H11.9167C10.7185 32.5 9.75 33.4685 9.75 34.6667C9.75 35.8648 10.7185 36.8333 11.9167 36.8333H16.25C17.4482 36.8333 18.4167 35.8648 18.4167 34.6667C18.4167 33.4685 17.4482 32.5 16.25 32.5ZM30.3333 10.8333C30.3333 9.63517 29.3648 8.66667 28.1667 8.66667H23.8333C22.6352 8.66667 21.6667 9.63517 21.6667 10.8333C21.6667 12.0315 22.6352 13 23.8333 13H28.1667C29.3648 13 30.3333 12.0315 30.3333 10.8333Z" fill="#34B3FF"/>
</g>
<defs>
<clipPath id="clip0_20_53">
<rect width="52" height="52" fill="white"/>
</clipPath>
</defs>
</svg>
