<svg width="52" height="52" viewBox="0 0 52 52" fill="none" xmlns="http://www.w3.org/2000/svg">
<g clip-path="url(#clip0_21_60)">
<path d="M21.6665 19.5H15.1665V39H21.6665V19.5Z" fill="#34B3FF"/>
<path d="M36.8335 26H30.3335V39H36.8335V26Z" fill="#34B3FF"/>
<path d="M52 17.3334H45.5V39H52V17.3334Z" fill="#34B3FF"/>
<path d="M34.944 17.4048C33.6436 17.4046 32.3966 16.8879 31.4773 15.9683L22.4726 6.97233L17.9833 11.4833L13.377 6.877L18.9995 1.2545C19.9349 0.359889 21.1794 -0.139404 22.4737 -0.139404C23.7681 -0.139404 25.0125 0.359889 25.948 1.2545L34.944 10.2483L44.2845 0.907833L48.8821 5.5055L38.4171 15.9683C37.9614 16.4248 37.42 16.7867 36.8239 17.0333C36.2279 17.2798 35.589 17.4061 34.944 17.4048V17.4048Z" fill="#34B3FF"/>
<path d="M52 52H7.58333C5.57211 52 3.64326 51.201 2.22111 49.7789C0.798956 48.3567 0 46.4279 0 44.4167L0 0H6.5V44.4167C6.5 44.704 6.61414 44.9795 6.8173 45.1827C7.02047 45.3859 7.29602 45.5 7.58333 45.5H52V52Z" fill="#34B3FF"/>
</g>
<defs>
<clipPath id="clip0_21_60">
<rect width="52" height="52" fill="white"/>
</clipPath>
</defs>
</svg>
