<svg width="52" height="52" viewBox="0 0 52 52" fill="none" xmlns="http://www.w3.org/2000/svg">
<g clip-path="url(#clip0_21_57)">
<path d="M48.75 8.61465H42.0636C41.6352 8.61475 41.2164 8.74187 40.8601 8.97995C40.5039 9.21803 40.2263 9.55639 40.0623 9.95224C39.8984 10.3481 39.8555 10.7837 39.939 11.2039C40.0226 11.6241 40.2289 12.0101 40.5318 12.3132L42.8848 14.6662L35.1151 22.4337C34.7023 22.8282 34.1533 23.0484 33.5822 23.0484C33.0112 23.0484 32.4621 22.8282 32.0493 22.4337L31.681 22.0632C30.443 20.8803 28.7966 20.2202 27.0844 20.2202C25.3721 20.2202 23.7258 20.8803 22.4878 22.0632L11.4378 33.1132C11.0307 33.5214 10.8024 34.0747 10.8032 34.6513C10.804 35.2279 11.0339 35.7805 11.4421 36.1877C11.8504 36.5948 12.4037 36.8231 12.9803 36.8222C13.5569 36.8214 14.1095 36.5916 14.5166 36.1833L25.5666 25.1333C25.9792 24.7383 26.5284 24.5178 27.0996 24.5178C27.6708 24.5178 28.2199 24.7383 28.6325 25.1333L29.0008 25.5038C30.2393 26.6857 31.8855 27.3451 33.5974 27.3451C35.3093 27.3451 36.9555 26.6857 38.194 25.5038L45.9636 17.7342L48.3166 20.0872C48.6207 20.3852 49.0058 20.587 49.4238 20.6675C49.8419 20.748 50.2744 20.7035 50.6673 20.5396C51.0603 20.3757 51.3962 20.0997 51.6332 19.746C51.8702 19.3924 51.9978 18.9767 52 18.551V11.8647C52 11.0027 51.6576 10.1761 51.0481 9.56656C50.4386 8.95706 49.6119 8.61465 48.75 8.61465Z" fill="#34B3FF"/>
<path d="M49.8333 47.6147H10.8333C9.10943 47.6147 7.45613 46.9298 6.23714 45.7109C5.01815 44.4919 4.33333 42.8386 4.33333 41.1147V2.16667C4.33333 1.59203 4.10506 1.04093 3.69873 0.634602C3.2924 0.228273 2.7413 0 2.16667 0C1.59203 0 1.04093 0.228273 0.634602 0.634602C0.228273 1.04093 0 1.59203 0 2.16667L0 41.1147C0.00344036 43.9868 1.14591 46.7403 3.17681 48.7712C5.20771 50.8021 7.96121 51.9446 10.8333 51.948H49.8333C50.408 51.948 50.9591 51.7197 51.3654 51.3134C51.7717 50.9071 52 50.356 52 49.7813C52 49.2067 51.7717 48.6556 51.3654 48.2493C50.9591 47.8429 50.408 47.6147 49.8333 47.6147Z" fill="#34B3FF"/>
</g>
<defs>
<clipPath id="clip0_21_57">
<rect width="52" height="52" fill="white"/>
</clipPath>
</defs>
</svg>
