<svg width="52" height="52" viewBox="0 0 52 52" fill="none" xmlns="http://www.w3.org/2000/svg">
<g clip-path="url(#clip0_20_32)">
<path d="M34.6665 49.8333C34.6665 51.0293 33.698 52 32.4998 52H12.9998C7.02634 52 2.1665 47.1402 2.1665 41.1667V10.8333C2.1665 4.85983 7.02634 0 12.9998 0H22.7823C26.8318 0 30.6408 1.57733 33.5073 4.44167L41.056 11.9947C41.6432 12.5818 42.1892 13.2253 42.6767 13.9078C43.3722 14.8807 43.1468 16.2348 42.174 16.9303C41.2012 17.6237 39.8448 17.4005 39.1515 16.4255C38.8027 15.938 38.4127 15.4765 37.9945 15.0605L30.4437 7.5075C29.7547 6.8185 28.9898 6.23567 28.1665 5.76333V15.1667C28.1665 16.3605 29.1372 17.3333 30.3332 17.3333H36.8332C38.0313 17.3333 38.9998 18.304 38.9998 19.5C38.9998 20.696 38.0313 21.6667 36.8332 21.6667H30.3332C26.7495 21.6667 23.8332 18.7503 23.8332 15.1667V4.38317C23.4865 4.35067 23.1355 4.33333 22.7823 4.33333H12.9998C9.41617 4.33333 6.49984 7.24967 6.49984 10.8333V41.1667C6.49984 44.7503 9.41617 47.6667 12.9998 47.6667H32.4998C33.698 47.6667 34.6665 48.6373 34.6665 49.8333ZM46.984 35.2452L40.3952 34.1467C39.587 34.0123 38.9998 33.319 38.9998 32.5C38.9998 31.3062 39.9705 30.3333 41.1665 30.3333H46.0805C46.8518 30.3333 47.5712 30.7493 47.959 31.4167C48.5548 32.4523 49.8765 32.8055 50.9187 32.2075C51.9543 31.6073 52.3097 30.2835 51.7073 29.2478C50.5503 27.2437 48.3923 25.9978 46.0783 25.9978H45.4977V23.8312C45.4977 22.6352 44.5292 21.6645 43.331 21.6645C42.1328 21.6645 41.1643 22.6352 41.1643 23.8312V25.9978C37.5807 25.9978 34.6643 28.9142 34.6643 32.4978C34.6643 35.4445 36.7747 37.9362 39.6802 38.4193L46.269 39.5178C47.0772 39.6522 47.6643 40.3455 47.6643 41.1645C47.6643 42.3583 46.6937 43.3312 45.4977 43.3312H40.5837C39.8123 43.3312 39.093 42.9152 38.7052 42.2478C38.1093 41.21 36.7855 40.8568 35.7455 41.457C34.7098 42.0572 34.3545 43.381 34.9568 44.4167C36.1138 46.4208 38.2718 47.6645 40.5858 47.6645H41.1665V49.8312C41.1665 51.0272 42.135 51.9978 43.3332 51.9978C44.5313 51.9978 45.4998 51.0272 45.4998 49.8312V47.6645C49.0835 47.6645 51.9998 44.7482 51.9998 41.1645C51.9998 38.2178 49.8895 35.7262 46.984 35.243V35.2452ZM16.2498 32.5H28.1665C29.3647 32.5 30.3332 31.5293 30.3332 30.3333C30.3332 29.1373 29.3647 28.1667 28.1665 28.1667H16.2498C13.2642 28.1667 10.8332 30.5977 10.8332 33.5833V37.9167C10.8332 40.9023 13.2642 43.3333 16.2498 43.3333H28.1665C29.3647 43.3333 30.3332 42.3627 30.3332 41.1667C30.3332 39.9707 29.3647 39 28.1665 39H16.2498C15.6518 39 15.1665 38.5147 15.1665 37.9167V33.5833C15.1665 32.9853 15.6518 32.5 16.2498 32.5V32.5ZM12.9998 23.8333H17.3332C18.5292 23.8333 19.4998 22.8627 19.4998 21.6667C19.4998 20.4707 18.5292 19.5 17.3332 19.5H12.9998C11.8038 19.5 10.8332 20.4707 10.8332 21.6667C10.8332 22.8627 11.8038 23.8333 12.9998 23.8333ZM12.9998 15.1667H17.3332C18.5292 15.1667 19.4998 14.196 19.4998 13C19.4998 11.804 18.5292 10.8333 17.3332 10.8333H12.9998C11.8038 10.8333 10.8332 11.804 10.8332 13C10.8332 14.196 11.8038 15.1667 12.9998 15.1667Z" fill="#34B3FF"/>
</g>
<defs>
<clipPath id="clip0_20_32">
<rect width="52" height="52" fill="white"/>
</clipPath>
</defs>
</svg>
