<svg width="52" height="52" viewBox="0 0 52 52" fill="none" xmlns="http://www.w3.org/2000/svg">
<g clip-path="url(#clip0_20_34)">
<path d="M43.3333 8.66667H32.5C32.5 6.36812 31.5869 4.16372 29.9616 2.53841C28.3363 0.913093 26.1319 0 23.8333 0L8.66667 0C6.36812 0 4.16372 0.913093 2.53841 2.53841C0.913093 4.16372 0 6.36812 0 8.66667L0 49.8333C0 50.408 0.228273 50.9591 0.634602 51.3654C1.04093 51.7717 1.59203 52 2.16667 52C2.7413 52 3.2924 51.7717 3.69873 51.3654C4.10506 50.9591 4.33333 50.408 4.33333 49.8333V28.1667H21.6667C21.6667 30.4652 22.5798 32.6696 24.2051 34.2949C25.8304 35.9202 28.0348 36.8333 30.3333 36.8333H43.3333C45.6319 36.8333 47.8363 35.9202 49.4616 34.2949C51.0869 32.6696 52 30.4652 52 28.1667V17.3333C52 15.0348 51.0869 12.8304 49.4616 11.2051C47.8363 9.57976 45.6319 8.66667 43.3333 8.66667ZM4.33333 23.8333V8.66667C4.33333 7.5174 4.78988 6.41519 5.60254 5.60254C6.41519 4.78988 7.5174 4.33333 8.66667 4.33333H23.8333C24.9826 4.33333 26.0848 4.78988 26.8975 5.60254C27.7101 6.41519 28.1667 7.5174 28.1667 8.66667V19.5C28.1667 20.6493 27.7101 21.7515 26.8975 22.5641C26.0848 23.3768 24.9826 23.8333 23.8333 23.8333H4.33333ZM47.6667 28.1667C47.6667 29.3159 47.2101 30.4181 46.3975 31.2308C45.5848 32.0435 44.4826 32.5 43.3333 32.5H30.3333C29.1841 32.5 28.0819 32.0435 27.2692 31.2308C26.4565 30.4181 26 29.3159 26 28.1667V27.859C27.855 27.3801 29.499 26.3 30.675 24.7876C31.8511 23.2752 32.4928 21.4158 32.5 19.5V13H43.3333C44.4826 13 45.5848 13.4565 46.3975 14.2692C47.2101 15.0819 47.6667 16.1841 47.6667 17.3333V28.1667Z" fill="#34B3FF"/>
</g>
<defs>
<clipPath id="clip0_20_34">
<rect width="52" height="52" fill="white"/>
</clipPath>
</defs>
</svg>
