<svg width="52" height="52" viewBox="0 0 52 52" fill="none" xmlns="http://www.w3.org/2000/svg">
<g clip-path="url(#clip0_20_36)">
<path d="M51.3653 48.3015L49.0318 45.968L45.2835 42.2262L51.3263 36.1833C51.5835 35.9257 51.7717 35.6074 51.8734 35.2579C51.9751 34.9084 51.9871 34.5388 51.9083 34.1834C51.8295 33.828 51.6624 33.4982 51.4225 33.2244C51.1826 32.9507 50.8775 32.7417 50.5355 32.617L31.1027 25.5667C30.3286 25.2869 29.4909 25.2334 28.6875 25.4123C27.8841 25.5913 27.1483 25.9954 26.5662 26.5773C25.9841 27.1591 25.5797 27.8948 25.4004 28.6981C25.2212 29.5014 25.2744 30.3392 25.5538 31.1133L32.6237 50.5462C32.7478 50.8885 32.9562 51.194 33.2296 51.4344C33.503 51.6749 33.8326 51.8426 34.188 51.922C34.3425 51.9556 34.5001 51.9723 34.6582 51.9718C35.2328 51.9717 35.7838 51.7434 36.19 51.337L42.2263 45.2833L45.9682 49.0252L48.3017 51.3587C48.7103 51.7533 49.2576 51.9717 49.8257 51.9668C50.3938 51.9619 50.9372 51.734 51.3389 51.3323C51.7407 50.9306 51.9685 50.3871 51.9735 49.819C51.9784 49.2509 51.76 48.7036 51.3653 48.295V48.3015ZM35.5335 45.8575L29.6315 29.6292L45.8598 35.5312L35.5335 45.8575Z" fill="#34B3FF"/>
<path d="M21.6667 43.3333C17.3814 43.3333 13.1924 42.0626 9.62932 39.6818C6.06626 37.3011 3.28919 33.9172 1.64929 29.9582C0.00938782 25.9991 -0.419684 21.6426 0.416329 17.4397C1.25234 13.2368 3.31589 9.37617 6.34603 6.34603C9.37617 3.31589 13.2368 1.25234 17.4397 0.416329C21.6426 -0.419684 25.9991 0.00938782 29.9582 1.64929C33.9172 3.28919 37.3011 6.06626 39.6818 9.62932C42.0626 13.1924 43.3333 17.3814 43.3333 21.6667C43.3333 22.2413 43.1051 22.7924 42.6987 23.1987C42.2924 23.6051 41.7413 23.8333 41.1667 23.8333C40.592 23.8333 40.0409 23.6051 39.6346 23.1987C39.2283 22.7924 39 22.2413 39 21.6667C39 18.2385 37.9834 14.8872 36.0788 12.0368C34.1742 9.18634 31.4671 6.96468 28.2999 5.65276C25.1326 4.34085 21.6475 3.99759 18.2851 4.6664C14.9228 5.33521 11.8343 6.98605 9.41016 9.41016C6.98605 11.8343 5.33521 14.9228 4.6664 18.2851C3.99759 21.6475 4.34085 25.1326 5.65276 28.2999C6.96468 31.4671 9.18634 34.1742 12.0368 36.0788C14.8872 37.9834 18.2385 39 21.6667 39C22.2413 39 22.7924 39.2283 23.1987 39.6346C23.6051 40.0409 23.8333 40.592 23.8333 41.1667C23.8333 41.7413 23.6051 42.2924 23.1987 42.6987C22.7924 43.1051 22.2413 43.3333 21.6667 43.3333Z" fill="#34B3FF"/>
<path d="M17.5153 33.8433C17.2306 33.8435 16.9486 33.7875 16.6855 33.6786C14.7113 32.8587 12.9699 31.5646 11.6152 29.9109C10.2606 28.2573 9.33472 26.2951 8.91949 24.1982C8.50426 22.1012 8.61253 19.9343 9.23473 17.8892C9.85692 15.8441 10.9738 13.9839 12.4865 12.4736C13.9992 10.9632 15.861 9.84911 17.9071 9.23005C19.9531 8.61099 22.1203 8.50603 24.2166 8.92447C26.3129 9.3429 28.2736 10.2718 29.9252 11.629C31.5768 12.9861 32.8682 14.7296 33.6852 16.705C33.7997 16.9689 33.8605 17.253 33.864 17.5406C33.8675 17.8283 33.8138 18.1138 33.7058 18.3805C33.5978 18.6471 33.4378 18.8896 33.2351 19.0938C33.0325 19.2979 32.7912 19.4597 32.5253 19.5696C32.2594 19.6795 31.9743 19.7354 31.6866 19.734C31.399 19.7325 31.1144 19.6738 30.8497 19.5612C30.5849 19.4487 30.3453 19.2845 30.1446 19.0783C29.944 18.8721 29.7865 18.628 29.6812 18.3603C29.1353 17.0446 28.2735 15.8837 27.1721 14.9803C26.0707 14.077 24.7636 13.459 23.3665 13.1812C21.9694 12.9033 20.5253 12.9742 19.1621 13.3874C17.7988 13.8006 16.5585 14.5434 15.5507 15.5502C14.543 16.557 13.799 17.7966 13.3844 19.1595C12.9699 20.5223 12.8977 21.9663 13.1742 23.3637C13.4508 24.7611 14.0674 26.0688 14.9697 27.171C15.872 28.2733 17.0321 29.1362 18.3473 29.6833C18.8108 29.8751 19.1934 30.2218 19.4298 30.6643C19.6662 31.1067 19.7418 31.6175 19.6436 32.1094C19.5454 32.6013 19.2796 33.0439 18.8914 33.3617C18.5033 33.6795 18.017 33.8528 17.5153 33.852V33.8433Z" fill="#34B3FF"/>
</g>
<defs>
<clipPath id="clip0_20_36">
<rect width="52" height="52" fill="white"/>
</clipPath>
</defs>
</svg>
