<svg width="52" height="52" viewBox="0 0 52 52" fill="none" xmlns="http://www.w3.org/2000/svg">
<g clip-path="url(#clip0_20_40)">
<path d="M34.6667 0H17.3333C14.4612 0.00344036 11.7077 1.14591 9.67681 3.17681C7.64591 5.20771 6.50344 7.96121 6.5 10.8333V41.1667C6.50344 44.0388 7.64591 46.7923 9.67681 48.8232C11.7077 50.8541 14.4612 51.9966 17.3333 52H34.6667C37.5388 51.9966 40.2923 50.8541 42.3232 48.8232C44.3541 46.7923 45.4966 44.0388 45.5 41.1667V10.8333C45.4966 7.96121 44.3541 5.20771 42.3232 3.17681C40.2923 1.14591 37.5388 0.00344036 34.6667 0V0ZM41.1667 41.1667C41.1667 42.8906 40.4818 44.5439 39.2629 45.7629C38.0439 46.9818 36.3906 47.6667 34.6667 47.6667H28.1667V45.5C28.1667 44.9254 27.9384 44.3743 27.5321 43.9679C27.1257 43.5616 26.5746 43.3333 26 43.3333C25.4254 43.3333 24.8743 43.5616 24.4679 43.9679C24.0616 44.3743 23.8333 44.9254 23.8333 45.5V47.6667H17.3333C15.6094 47.6667 13.9561 46.9818 12.7371 45.7629C11.5182 44.5439 10.8333 42.8906 10.8333 41.1667V10.8333C10.8333 9.10943 11.5182 7.45613 12.7371 6.23714C13.9561 5.01815 15.6094 4.33333 17.3333 4.33333H34.6667C36.3906 4.33333 38.0439 5.01815 39.2629 6.23714C40.4818 7.45613 41.1667 9.10943 41.1667 10.8333V41.1667ZM34.6667 34.6667C34.6667 35.2413 34.4384 35.7924 34.0321 36.1987C33.6257 36.6051 33.0746 36.8333 32.5 36.8333H19.5C18.9254 36.8333 18.3743 36.6051 17.9679 36.1987C17.5616 35.7924 17.3333 35.2413 17.3333 34.6667C17.3333 34.092 17.5616 33.5409 17.9679 33.1346C18.3743 32.7283 18.9254 32.5 19.5 32.5H32.5C33.0746 32.5 33.6257 32.7283 34.0321 33.1346C34.4384 33.5409 34.6667 34.092 34.6667 34.6667ZM21.6667 28.1667C22.2413 28.1667 22.7924 27.9384 23.1987 27.5321C23.6051 27.1257 23.8333 26.5746 23.8333 26V23.8333H28.1667V26C28.1667 26.5746 28.3949 27.1257 28.8013 27.5321C29.2076 27.9384 29.7587 28.1667 30.3333 28.1667C30.908 28.1667 31.4591 27.9384 31.8654 27.5321C32.2717 27.1257 32.5 26.5746 32.5 26V17.3333C32.5 15.6094 31.8152 13.9561 30.5962 12.7371C29.3772 11.5182 27.7239 10.8333 26 10.8333C24.2761 10.8333 22.6228 11.5182 21.4038 12.7371C20.1848 13.9561 19.5 15.6094 19.5 17.3333V26C19.5 26.5746 19.7283 27.1257 20.1346 27.5321C20.5409 27.9384 21.092 28.1667 21.6667 28.1667ZM26 15.1667C26.5746 15.1667 27.1257 15.3949 27.5321 15.8013C27.9384 16.2076 28.1667 16.7587 28.1667 17.3333V19.5H23.8333V17.3333C23.8333 16.7587 24.0616 16.2076 24.4679 15.8013C24.8743 15.3949 25.4254 15.1667 26 15.1667V15.1667Z" fill="#34B3FF"/>
</g>
<defs>
<clipPath id="clip0_20_40">
<rect width="52" height="52" fill="white"/>
</clipPath>
</defs>
</svg>
