<svg width="52" height="52" viewBox="0 0 52 52" fill="none" xmlns="http://www.w3.org/2000/svg">
<g clip-path="url(#clip0_21_55)">
<path d="M52 15.1667V17.3333C52 18.5293 51.0315 19.5 49.8333 19.5C48.6352 19.5 47.6667 18.5293 47.6667 17.3333V15.1667C47.6667 11.583 44.7503 8.66668 41.1667 8.66668H10.8333C7.24967 8.66668 4.33333 11.583 4.33333 15.1667V36.8333C4.33333 40.417 7.24967 43.3333 10.8333 43.3333H17.3333C18.5315 43.3333 19.5 44.304 19.5 45.5C19.5 46.696 18.5315 47.6667 17.3333 47.6667H10.8333C4.85983 47.6667 0 42.8068 0 36.8333V15.1667C0 9.19318 4.85983 4.33334 10.8333 4.33334H41.1667C47.1402 4.33334 52 9.19318 52 15.1667ZM32.5 19.5H41.1667C42.3648 19.5 43.3333 18.5293 43.3333 17.3333C43.3333 16.1373 42.3648 15.1667 41.1667 15.1667H32.5C31.3018 15.1667 30.3333 16.1373 30.3333 17.3333C30.3333 18.5293 31.3018 19.5 32.5 19.5ZM50.0955 25.7378C51.3218 26.9642 52 28.5978 52 30.3333C52 32.0688 51.3218 33.7025 50.0955 34.931L35.5637 49.4628C33.9278 51.0987 31.7503 52.0022 29.4363 52.0022H26C24.8018 52.0022 23.8333 51.0315 23.8333 49.8355V46.3992C23.8333 44.0852 24.7347 41.9077 26.3727 40.2718L40.9045 25.74C43.4395 23.205 47.5605 23.205 50.0955 25.74V25.7378ZM47.6667 30.3333C47.6667 29.7548 47.4413 29.211 47.0318 28.8015C46.1847 27.9543 44.8153 27.9565 43.9682 28.8015L29.4363 43.3333C28.6303 44.1415 28.1667 45.2573 28.1667 46.397V47.6667H29.4363C30.5933 47.6667 31.681 47.216 32.5 46.397L47.0318 31.8652C47.4413 31.4557 47.6667 30.9118 47.6667 30.3333V30.3333ZM19.5 32.5H14.586C13.8147 32.5 13.0953 32.084 12.7075 31.4167C12.1117 30.3788 10.7878 30.0213 9.74783 30.6258C8.71217 31.226 8.35683 32.5498 8.95917 33.5855C10.1162 35.5897 12.2742 36.8333 14.5882 36.8333H15.1688C15.1688 38.0293 16.1373 39 17.3355 39C18.5337 39 19.5022 38.0293 19.5022 36.8333C23.0858 36.8333 26.0022 33.917 26.0022 30.3333C26.0022 27.3867 23.8918 24.895 20.9863 24.4118L14.3975 23.3133C13.5893 23.179 13.0022 22.4857 13.0022 21.6667C13.0022 20.4728 13.9728 19.5 15.1688 19.5H20.0828C20.8542 19.5 21.5735 19.916 21.9613 20.5833C22.5572 21.619 23.8788 21.9743 24.921 21.3742C25.9567 20.774 26.312 19.4502 25.7097 18.4145C24.5527 16.4103 22.3947 15.1645 20.0807 15.1645H19.5C19.5 13.9685 18.5315 12.9978 17.3333 12.9978C16.1352 12.9978 15.1667 13.9685 15.1667 15.1645C11.583 15.1645 8.66667 18.0808 8.66667 21.6645C8.66667 24.6112 10.777 27.1028 13.6825 27.586L20.2713 28.6845C21.0795 28.8188 21.6667 29.5122 21.6667 30.3312C21.6667 31.525 20.696 32.4978 19.5 32.4978V32.5ZM30.3333 26C30.3333 27.196 31.304 28.1667 32.5 28.1667C33.696 28.1667 34.6667 27.196 34.6667 26C34.6667 24.804 33.696 23.8333 32.5 23.8333C31.304 23.8333 30.3333 24.804 30.3333 26Z" fill="#34B3FF"/>
</g>
<defs>
<clipPath id="clip0_21_55">
<rect width="52" height="52" fill="white"/>
</clipPath>
</defs>
</svg>
