<svg width="52" height="52" viewBox="0 0 52 52" fill="none" xmlns="http://www.w3.org/2000/svg">
<g clip-path="url(#clip0_20_42)">
<path d="M52 21.6667L47.2333 0H4.76667L0.052 21.1965L0 23.8333C0.00785785 25.9248 0.778212 27.9416 2.16667 29.5057V45.5C2.16667 47.2239 2.85149 48.8772 4.07047 50.0962C5.28946 51.3152 6.94276 52 8.66667 52H43.3333C45.0572 52 46.7105 51.3152 47.9295 50.0962C49.1485 48.8772 49.8333 47.2239 49.8333 45.5V29.5057C51.2218 27.9416 51.9921 25.9248 52 23.8333V21.6667ZM4.33333 21.9028L8.23333 4.33333H15.1667V13H19.5V4.33333H32.5V13H36.8333V4.33333H43.7667L47.6667 21.9028V23.8333C47.6667 24.9826 47.2101 26.0848 46.3975 26.8975C45.5848 27.7101 44.4826 28.1667 43.3333 28.1667H41.1667C40.0174 28.1667 38.9152 27.7101 38.1025 26.8975C37.2899 26.0848 36.8333 24.9826 36.8333 23.8333H32.5C32.5 24.9826 32.0435 26.0848 31.2308 26.8975C30.4181 27.7101 29.3159 28.1667 28.1667 28.1667H23.8333C22.6841 28.1667 21.5819 27.7101 20.7692 26.8975C19.9565 26.0848 19.5 24.9826 19.5 23.8333H15.1667C15.1667 24.9826 14.7101 26.0848 13.8975 26.8975C13.0848 27.7101 11.9826 28.1667 10.8333 28.1667H8.66667C7.5174 28.1667 6.41519 27.7101 5.60254 26.8975C4.78988 26.0848 4.33333 24.9826 4.33333 23.8333V21.9028ZM43.3333 47.6667H8.66667C8.09203 47.6667 7.54093 47.4384 7.1346 47.0321C6.72827 46.6257 6.5 46.0746 6.5 45.5V32.1923C7.20603 32.3874 7.93423 32.4908 8.66667 32.5H10.8333C12.0681 32.496 13.2876 32.2266 14.4091 31.7099C15.5306 31.1933 16.5279 30.4416 17.3333 29.5057C18.1388 30.4416 19.1361 31.1933 20.2576 31.7099C21.3791 32.2266 22.5986 32.496 23.8333 32.5H28.1667C29.3969 32.5006 30.6132 32.2387 31.7341 31.7317C32.855 31.2246 33.8548 30.4842 34.6667 29.5598C35.4785 30.4842 36.4783 31.2246 37.5992 31.7317C38.7202 32.2387 39.9364 32.5006 41.1667 32.5H43.3333C44.0658 32.4908 44.794 32.3874 45.5 32.1923V45.5C45.5 46.0746 45.2717 46.6257 44.8654 47.0321C44.4591 47.4384 43.908 47.6667 43.3333 47.6667Z" fill="#34B3FF"/>
</g>
<defs>
<clipPath id="clip0_20_42">
<rect width="52" height="52" fill="white"/>
</clipPath>
</defs>
</svg>
