<svg width="52" height="52" viewBox="0 0 52 52" fill="none" xmlns="http://www.w3.org/2000/svg">
<g clip-path="url(#clip0_20_45)">
<path d="M26 0C11.6632 0 0 11.6632 0 26C0 40.3368 11.6632 52 26 52C40.3368 52 52 40.3368 52 26C52 11.6632 40.3368 0 26 0ZM26 47.6667C14.053 47.6667 4.33333 37.947 4.33333 26C4.33333 14.053 14.053 4.33333 26 4.33333C37.947 4.33333 47.6667 14.053 47.6667 26C47.6667 37.947 37.947 47.6667 26 47.6667ZM34.6667 30.3333C34.6667 33.917 31.7503 36.8333 28.1667 36.8333V39C28.1667 40.1982 27.1982 41.1667 26 41.1667C24.8018 41.1667 23.8333 40.1982 23.8333 39V36.8333H23.2527C20.9408 36.8333 18.7828 35.5897 17.6237 33.5855C17.0235 32.5477 17.3788 31.2238 18.4123 30.6258C19.4502 30.0213 20.7762 30.381 21.372 31.4145C21.7598 32.0862 22.4792 32.5 23.2505 32.5H28.1645C29.3605 32.5 30.3312 31.5293 30.3312 30.3333C30.3312 29.5143 29.744 28.821 28.9358 28.6867L22.347 27.5882C19.4393 27.105 17.3312 24.6133 17.3312 21.6667C17.3312 18.083 20.2475 15.1667 23.8312 15.1667V13C23.8312 11.804 24.7997 10.8333 25.9978 10.8333C27.196 10.8333 28.1645 11.804 28.1645 13V15.1667H28.7452C31.057 15.1667 33.215 16.4125 34.3742 18.4167C34.9743 19.4523 34.619 20.7762 33.5855 21.3763C32.5455 21.9765 31.2217 21.6212 30.6258 20.5855C30.238 19.916 29.5187 19.5022 28.7473 19.5022H23.8333C22.6373 19.5022 21.6667 20.475 21.6667 21.6688C21.6667 22.4878 22.2538 23.1812 23.062 23.3155L29.6508 24.414C32.5585 24.8972 34.6667 27.3888 34.6667 30.3355V30.3333Z" fill="#34B3FF"/>
</g>
<defs>
<clipPath id="clip0_20_45">
<rect width="52" height="52" fill="white"/>
</clipPath>
</defs>
</svg>
