<svg width="52" height="52" viewBox="0 0 52 52" fill="none" xmlns="http://www.w3.org/2000/svg">
<g clip-path="url(#clip0_20_47)">
<path d="M45.5 13H10.8333C8.97217 13 7.21067 12.194 5.99083 10.8355C7.1825 9.50521 8.91367 8.66671 10.8333 8.66671H49.8333C51.0315 8.66671 52 7.69604 52 6.50004C52 5.30404 51.0315 4.33337 49.8333 4.33337H10.8333C4.85117 4.33337 0 9.18454 0 15.1667V36.8334C0 42.8155 4.85117 47.6667 10.8333 47.6667H45.5C49.0902 47.6667 52 44.7569 52 41.1667V19.5C52 15.9099 49.0902 13 45.5 13ZM47.6667 41.1667C47.6667 42.3605 46.696 43.3334 45.5 43.3334H10.8333C7.24967 43.3334 4.33333 40.417 4.33333 36.8334V15.1624C6.18367 16.5469 8.45867 17.3334 10.8333 17.3334H45.5C46.696 17.3334 47.6667 18.3062 47.6667 19.5V41.1667ZM43.3333 30.3334C43.3333 31.5294 42.3627 32.5 41.1667 32.5C39.9707 32.5 39 31.5294 39 30.3334C39 29.1374 39.9707 28.1667 41.1667 28.1667C42.3627 28.1667 43.3333 29.1374 43.3333 30.3334Z" fill="#34B3FF"/>
</g>
<defs>
<clipPath id="clip0_20_47">
<rect width="52" height="52" fill="white"/>
</clipPath>
</defs>
</svg>
